<?xml version="1.0" standalone="no"?>
<!DOCTYPE svg PUBLIC "-//W3C//DTD SVG 20010904//EN"
 "http://www.w3.org/TR/2001/REC-SVG-20010904/DTD/svg10.dtd">
<svg version="1.0" xmlns="http://www.w3.org/2000/svg"
 width="1280.000000pt" height="1280.000000pt" viewBox="0 0 1280.000000 1280.000000"
 preserveAspectRatio="xMidYMid meet">

<g transform="translate(0.000000,1280.000000) scale(0.100000,-0.100000)"
fill="#000000" stroke="none">
<path d="M6110 12794 c-230 -15 -367 -27 -505 -45 -2102 -259 -3958 -1571
-4922 -3479 -374 -740 -590 -1513 -664 -2375 -17 -194 -17 -795 -1 -985 76
-871 282 -1610 657 -2360 816 -1634 2305 -2855 4060 -3329 562 -151 1057 -216
1665 -215 350 0 511 9 800 45 1840 230 3502 1265 4535 2824 549 828 895 1759
1014 2730 37 297 46 446 45 795 0 350 -9 511 -45 800 -262 2096 -1566 3944
-3464 4909 -727 370 -1501 591 -2330 667 -159 14 -722 26 -845 18z m640 -94
c644 -40 1237 -162 1810 -373 732 -270 1402 -668 1990 -1180 148 -129 468
-449 597 -597 1018 -1169 1568 -2638 1562 -4175 0 -115 -4 -232 -9 -260 -4
-27 -8 -44 -9 -37 0 7 -33 83 -72 170 -716 1583 -1716 2600 -3044 3099 -993
373 -2194 472 -3658 301 l-179 -20 -45 43 c-123 120 -297 363 -390 545 -162
317 -237 620 -236 959 2 399 105 718 340 1048 76 107 274 305 395 395 l97 73
128 8 c188 12 534 12 723 1z m-1078 -70 c-207 -163 -389 -392 -513 -645 -264
-539 -247 -1190 48 -1779 102 -205 237 -401 382 -558 l72 -77 -49 -68 c-180
-254 -298 -551 -348 -878 -20 -134 -23 -420 -5 -555 27 -200 88 -417 171 -602
174 -391 455 -728 837 -1008 l103 -75 0 -50 c0 -27 -9 -113 -20 -190 -102
-696 -440 -1253 -972 -1599 -339 -221 -800 -340 -1183 -307 -66 6 -125 11
-132 11 -14 0 -133 156 -300 390 -1147 1616 -1598 3079 -1388 4501 134 909
560 1850 1268 2799 72 96 130 180 130 186 0 7 75 43 166 82 412 175 838 305
1261 387 155 30 439 73 488 74 l34 1 -50 -40z m-2085 -612 c-19 -24 -75 -99
-124 -168 -961 -1342 -1353 -2639 -1197 -3950 134 -1125 641 -2256 1582 -3532
l131 -177 -50 -146 c-115 -338 -279 -610 -516 -856 -176 -181 -339 -302 -548
-404 -486 -237 -1044 -241 -1551 -10 -42 19 -80 32 -85 30 -10 -7 -141 191
-263 395 -107 179 -313 587 -390 775 -242 590 -386 1152 -450 1765 -162 1525
239 3051 1128 4303 213 301 414 537 700 822 373 372 751 670 1186 933 151 91
454 258 473 261 5 1 -7 -18 -26 -41z m4023 -2388 c1166 -53 2102 -332 2899
-865 435 -290 807 -639 1153 -1081 362 -462 689 -1032 963 -1677 l63 -148 -19
-165 c-67 -586 -193 -1084 -417 -1646 -36 -93 -70 -168 -74 -168 -4 0 -8 13
-8 28 0 44 -37 204 -76 326 -45 143 -166 385 -252 506 -81 115 -297 334 -409
415 -208 150 -459 268 -708 330 -213 54 -334 69 -565 69 -218 0 -328 -11 -517
-50 -64 -13 -118 -22 -120 -21 -1 2 -25 48 -51 103 -308 627 -907 1048 -1622
1139 -159 21 -476 16 -625 -9 -261 -43 -494 -114 -732 -222 l-73 -33 -77 56
c-770 550 -1136 1383 -968 2205 48 237 154 496 279 681 98 146 75 133 281 156
619 71 1165 94 1675 71z m330 -3010 c313 -55 595 -174 849 -356 119 -86 326
-290 414 -409 77 -105 175 -271 216 -369 l29 -69 -34 -81 c-212 -498 -446
-964 -682 -1361 -92 -155 -271 -429 -361 -554 -228 -319 -403 -524 -685 -806
-340 -340 -611 -553 -973 -766 -1030 -607 -2252 -806 -3788 -618 l-170 21
-115 86 c-461 347 -855 732 -1212 1186 -60 76 -107 140 -106 142 2 1 45 -13
95 -32 192 -72 475 -124 673 -124 117 0 315 25 438 55 474 116 908 431 1208
877 101 150 222 399 279 572 l49 146 50 -7 c79 -12 371 -8 471 6 688 97 1265
512 1596 1146 144 276 242 613 270 925 6 69 14 132 18 140 11 21 195 101 353
154 154 51 319 90 474 110 162 22 481 15 644 -14z m2490 -1170 c327 -41 674
-172 920 -347 200 -144 394 -359 515 -572 121 -214 209 -501 231 -752 l7 -77
-100 -193 c-918 -1788 -2676 -3050 -4663 -3348 -1153 -173 -2322 -26 -3390
426 -177 75 -482 226 -646 319 -143 80 -376 225 -372 230 2 2 33 -1 68 -6 359
-49 978 -72 1350 -50 1244 75 2187 431 3070 1159 156 128 538 513 686 691 516
619 964 1376 1371 2320 l58 135 68 17 c248 62 566 80 827 48z"/>
</g>
</svg>
